<svg xmlns="http://www.w3.org/2000/svg" xmlns:xlink="http://www.w3.org/1999/xlink" width="100%" zoomAndPan="magnify" viewBox="0 0 375 374.999991" height="100%" preserveAspectRatio="xMidYMid meet" version="1.0"><defs><g/><clipPath id="fc06a4c060"><path d="M 45.917969 151.464844 L 337.492188 151.464844 L 337.492188 223.464844 L 45.917969 223.464844 Z M 45.917969 151.464844 " clip-rule="nonzero"/></clipPath><clipPath id="aba2372fed"><path d="M 53.773438 158.238281 L 187.332031 158.238281 L 187.332031 216.761719 L 53.773438 216.761719 Z M 53.773438 158.238281 " clip-rule="nonzero"/></clipPath><clipPath id="0f44c32f1c"><path d="M 178 172.710938 L 197 172.710938 L 197 189 L 178 189 Z M 178 172.710938 " clip-rule="nonzero"/></clipPath><clipPath id="e569e5d82a"><path d="M 172.425781 178 L 202.425781 178 L 202.425781 202.710938 L 172.425781 202.710938 Z M 172.425781 178 " clip-rule="nonzero"/></clipPath></defs><g clip-path="url(#fc06a4c060)"><path stroke-linecap="butt" transform="matrix(0.75, 0, 0, 0.75, 45.91713, 151.465464)" fill="none" stroke-linejoin="miter" d="M 0.00111795 -0.000826538 L 388.766768 -0.000826538 L 388.766768 96.09293 L 0.00111795 96.09293 Z M 0.00111795 -0.000826538 " stroke="#000000" stroke-width="6" stroke-opacity="1" stroke-miterlimit="4"/></g><g clip-path="url(#aba2372fed)"><path fill="#000000" d="M 53.773438 158.238281 L 187.285156 158.238281 L 187.285156 216.761719 L 53.773438 216.761719 Z M 53.773438 158.238281 " fill-opacity="1" fill-rule="nonzero"/></g><g clip-path="url(#0f44c32f1c)"><path fill="#88c057" d="M 195.917969 177.621094 C 194.433594 176.667969 191.640625 175.339844 188.957031 176.566406 C 188.695312 176.6875 188.402344 176.5 188.402344 176.214844 L 188.402344 173.75 C 188.402344 173.179688 188.015625 172.710938 187.542969 172.710938 L 186.253906 172.710938 C 185.777344 172.710938 185.390625 173.179688 185.390625 173.75 L 185.390625 176.363281 C 185.390625 176.609375 185.167969 176.796875 184.925781 176.746094 C 183.835938 176.519531 181.007812 176.171875 178.300781 177.789062 C 177.929688 178.007812 178.144531 178.589844 178.570312 178.511719 C 179.832031 178.28125 181.488281 178.121094 182.609375 178.566406 C 182.902344 178.679688 182.945312 179.082031 182.679688 179.253906 C 181.886719 179.773438 180.417969 180.96875 179.457031 183.164062 C 179.292969 183.539062 179.75 183.875 180.066406 183.613281 C 181.296875 182.601562 183.316406 181.230469 185.03125 181.453125 C 185.234375 181.476562 185.386719 181.644531 185.382812 181.847656 C 185.367188 182.996094 185.382812 186.90625 186.332031 188.386719 C 186.480469 188.621094 186.816406 188.632812 186.980469 188.40625 C 187.585938 187.574219 188.898438 185.367188 188.84375 181.925781 C 188.839844 181.699219 189.023438 181.511719 189.25 181.519531 C 190.113281 181.550781 192.15625 181.792969 193.777344 183.375 C 194.042969 183.632812 194.480469 183.410156 194.433594 183.042969 C 194.308594 182.035156 193.753906 180.511719 191.746094 179.332031 C 191.441406 179.152344 191.492188 178.695312 191.835938 178.609375 C 192.527344 178.441406 193.722656 178.277344 195.691406 178.34375 C 196.09375 178.355469 196.253906 177.835938 195.917969 177.621094 Z M 195.917969 177.621094 " fill-opacity="1" fill-rule="nonzero"/></g><g clip-path="url(#e569e5d82a)"><path fill="#d13834" d="M 196.371094 178.511719 C 196.316406 178.472656 196.253906 178.449219 196.1875 178.441406 C 195.957031 178.414062 195.722656 178.386719 195.492188 178.355469 C 195.410156 178.347656 195.324219 178.339844 195.242188 178.332031 C 193.550781 178.304688 192.488281 178.453125 191.847656 178.605469 C 191.5 178.691406 191.4375 179.148438 191.746094 179.328125 C 193.753906 180.511719 194.308594 182.035156 194.433594 183.039062 C 194.480469 183.410156 194.042969 183.632812 193.777344 183.375 C 192.15625 181.792969 190.113281 181.546875 189.25 181.519531 C 189.023438 181.511719 188.839844 181.695312 188.84375 181.921875 C 188.898438 185.367188 187.585938 187.574219 186.980469 188.40625 C 186.816406 188.628906 186.484375 188.617188 186.332031 188.382812 C 185.382812 186.90625 185.367188 182.996094 185.386719 181.84375 C 185.386719 181.640625 185.234375 181.476562 185.035156 181.449219 C 183.320312 181.226562 181.296875 182.601562 180.066406 183.613281 C 179.753906 183.871094 179.292969 183.539062 179.457031 183.164062 C 180.417969 180.96875 181.882812 179.777344 182.679688 179.253906 C 182.945312 179.082031 182.902344 178.679688 182.605469 178.566406 C 182.390625 178.480469 182.15625 178.417969 181.90625 178.375 C 181.863281 178.367188 181.816406 178.367188 181.769531 178.375 C 180.363281 178.566406 178.980469 178.832031 177.636719 179.191406 C 177.578125 179.207031 177.523438 179.238281 177.476562 179.277344 C 174.515625 181.742188 172.65625 185.289062 172.65625 189.234375 C 172.65625 196.679688 179.269531 202.710938 187.425781 202.710938 C 195.585938 202.710938 202.199219 196.679688 202.199219 189.234375 C 202.199219 184.859375 199.914062 180.972656 196.371094 178.511719 Z M 196.371094 178.511719 " fill-opacity="1" fill-rule="nonzero"/></g><path fill="#ed7161" d="M 175.789062 192.816406 C 175.589844 192.816406 175.394531 192.714844 175.289062 192.535156 C 174.855469 191.800781 174.570312 190.992188 174.441406 190.128906 C 174.394531 189.808594 174.617188 189.515625 174.933594 189.46875 C 175.253906 189.417969 175.546875 189.640625 175.589844 189.957031 C 175.695312 190.664062 175.9375 191.347656 176.289062 191.941406 C 176.449219 192.21875 176.359375 192.574219 176.082031 192.738281 C 175.992188 192.792969 175.886719 192.816406 175.789062 192.816406 Z M 175.789062 192.816406 " fill-opacity="1" fill-rule="nonzero"/><path fill="#ed7161" d="M 175.089844 188.199219 C 175.078125 188.199219 175.0625 188.199219 175.050781 188.195312 C 174.730469 188.175781 174.488281 187.898438 174.511719 187.578125 C 174.566406 186.808594 174.722656 186.058594 174.980469 185.351562 C 175.089844 185.050781 175.421875 184.898438 175.726562 185.007812 C 176.027344 185.117188 176.179688 185.449219 176.070312 185.75 C 175.851562 186.355469 175.714844 186.996094 175.667969 187.65625 C 175.648438 187.964844 175.390625 188.199219 175.089844 188.199219 Z M 175.089844 188.199219 " fill-opacity="1" fill-rule="nonzero"/><g fill="#ffffff" fill-opacity="1"><g transform="translate(67.039447, 196.618259)"><g><path d="M 2.863281 0 L 5.335938 0 L 5.335938 -6.460938 L 9.523438 -6.460938 C 13.960938 -6.460938 16.824219 -9.015625 16.824219 -13.0625 C 16.824219 -17.078125 13.960938 -19.660156 9.523438 -19.660156 L 2.863281 -19.660156 Z M 5.335938 -8.761719 L 5.335938 -17.300781 L 9.464844 -17.300781 C 12.640625 -17.300781 14.296875 -15.839844 14.296875 -13.03125 C 14.296875 -10.222656 12.640625 -8.761719 9.464844 -8.761719 Z M 5.335938 -8.761719 "/></g></g></g><g fill="#ffffff" fill-opacity="1"><g transform="translate(87.116142, 196.618259)"><g><path d="M 11.796875 0.363281 C 17.78125 0.363281 21.992188 -3.847656 21.992188 -9.832031 C 21.992188 -15.8125 17.78125 -20.027344 11.796875 -20.027344 C 5.8125 -20.027344 1.628906 -15.8125 1.628906 -9.832031 C 1.628906 -3.847656 5.8125 0.363281 11.796875 0.363281 Z M 4.15625 -9.832031 C 4.15625 -14.410156 7.273438 -17.554688 11.796875 -17.554688 C 16.320312 -17.554688 19.4375 -14.410156 19.4375 -9.832031 C 19.4375 -5.253906 16.320312 -2.105469 11.796875 -2.105469 C 7.273438 -2.105469 4.15625 -5.253906 4.15625 -9.832031 Z M 4.15625 -9.832031 "/></g></g></g><g fill="#ffffff" fill-opacity="1"><g transform="translate(112.836525, 196.618259)"><g><path d="M 2.863281 0 L 5.335938 0 L 5.335938 -15.054688 L 11.851562 -5.222656 L 13.875 -5.222656 L 20.390625 -15.027344 L 20.390625 0 L 22.863281 0 L 22.863281 -19.660156 L 20.558594 -19.660156 L 12.890625 -8.003906 L 5.167969 -19.660156 L 2.863281 -19.660156 Z M 2.863281 0 "/></g></g></g><g fill="#ffffff" fill-opacity="1"><g transform="translate(140.690842, 196.618259)"><g><path d="M 11.796875 0.363281 C 17.78125 0.363281 21.992188 -3.847656 21.992188 -9.832031 C 21.992188 -15.8125 17.78125 -20.027344 11.796875 -20.027344 C 5.8125 -20.027344 1.628906 -15.8125 1.628906 -9.832031 C 1.628906 -3.847656 5.8125 0.363281 11.796875 0.363281 Z M 4.15625 -9.832031 C 4.15625 -14.410156 7.273438 -17.554688 11.796875 -17.554688 C 16.320312 -17.554688 19.4375 -14.410156 19.4375 -9.832031 C 19.4375 -5.253906 16.320312 -2.105469 11.796875 -2.105469 C 7.273438 -2.105469 4.15625 -5.253906 4.15625 -9.832031 Z M 4.15625 -9.832031 "/></g></g></g><g fill="#000000" fill-opacity="1"><g transform="translate(204.469849, 196.769512)"><g><path d="M 6.769531 0 L 12.414062 0 L 12.414062 -14.410156 L 18.398438 -14.410156 L 18.398438 -19.660156 L 0.785156 -19.660156 L 0.785156 -14.410156 L 6.769531 -14.410156 Z M 6.769531 0 "/></g></g></g><g fill="#000000" fill-opacity="1"><g transform="translate(223.651914, 196.769512)"><g><path d="M 0.140625 0 L 6.152344 0 L 7.21875 -2.78125 L 13.929688 -2.78125 L 15 0 L 21.035156 0 L 13.398438 -19.660156 L 7.78125 -19.660156 Z M 8.398438 -6.9375 L 10.589844 -13.03125 L 12.78125 -6.9375 Z M 8.398438 -6.9375 "/></g></g></g><g fill="#000000" fill-opacity="1"><g transform="translate(244.828011, 196.769512)"><g><path d="M 9.128906 0.421875 C 14.015625 0.421875 16.90625 -1.882812 16.90625 -5.757812 C 16.90625 -9.015625 14.800781 -10.925781 10.027344 -11.992188 C 7.5 -12.554688 6.574219 -13.171875 6.574219 -14.183594 C 6.574219 -15.140625 7.414062 -15.730469 8.734375 -15.730469 C 10.308594 -15.730469 11.207031 -14.914062 11.207031 -13.425781 L 16.542969 -13.425781 C 16.542969 -17.46875 13.453125 -20.082031 8.621094 -20.082031 C 3.988281 -20.082031 1.125 -17.777344 1.125 -14.070312 C 1.125 -10.757812 3.285156 -8.707031 7.722656 -7.863281 C 10.109375 -7.386719 11.261719 -6.65625 11.261719 -5.53125 C 11.261719 -4.550781 10.421875 -3.988281 9.042969 -3.988281 C 7.414062 -3.988281 6.460938 -4.859375 6.460938 -6.375 L 0.984375 -6.375 C 0.984375 -2.132812 4.015625 0.421875 9.128906 0.421875 Z M 9.128906 0.421875 "/></g></g></g><g fill="#000000" fill-opacity="1"><g transform="translate(262.774338, 196.769512)"><g><path d="M 2.078125 0 L 7.75 0 L 7.75 -7.441406 L 10.222656 -7.441406 L 13.988281 0 L 20.558594 0 L 15.390625 -9.550781 C 15.980469 -10.25 16.515625 -11.179688 16.964844 -12.328125 L 19.886719 -19.660156 L 13.734375 -19.660156 L 11.964844 -14.746094 C 11.375 -13.03125 10.730469 -12.609375 8.707031 -12.609375 L 7.75 -12.609375 L 7.75 -19.660156 L 2.078125 -19.660156 Z M 2.078125 0 "/></g></g></g><g fill="#000000" fill-opacity="1"><g transform="translate(284.006613, 196.769512)"><g><path d="M 2.078125 0 L 15.867188 0 L 15.867188 -4.632812 L 7.695312 -4.632812 L 7.695312 -7.667969 L 14.800781 -7.667969 L 14.800781 -12.21875 L 7.695312 -12.21875 L 7.695312 -15.082031 L 15.558594 -15.082031 L 15.558594 -19.660156 L 2.078125 -19.660156 Z M 2.078125 0 "/></g></g></g><g fill="#000000" fill-opacity="1"><g transform="translate(301.138467, 196.769512)"><g><path d="M 2.078125 0 L 7.75 0 L 7.75 -5.589844 L 9.886719 -5.589844 L 12.695312 0 L 19.128906 0 L 15.503906 -6.628906 C 17.582031 -7.78125 18.761719 -9.859375 18.761719 -12.609375 C 18.761719 -16.964844 15.8125 -19.660156 11.039062 -19.660156 L 2.078125 -19.660156 Z M 7.640625 -10.109375 L 7.640625 -15.027344 L 10.28125 -15.027344 C 12.078125 -15.027344 13.058594 -14.15625 13.058594 -12.582031 C 13.058594 -11.011719 12.078125 -10.109375 10.28125 -10.109375 Z M 7.640625 -10.109375 "/></g></g></g></svg>